<svg xmlns="http://www.w3.org/2000/svg" viewBox="0 0 127.41 47.89"><defs><style>.cls-1,.cls-2{fill:#52c75a;}.cls-2{font-size:14.95px;font-family:Montserrat-ExtraBold, Montserrat;font-weight:800;}.cls-3{letter-spacing:0em;}.cls-4{letter-spacing:-0.02em;}.cls-5,.cls-7{letter-spacing:0em;}.cls-6{fill:#b8e45c;}.cls-7{fill:#000;}</style></defs><g id="katman_2" data-name="katman 2"><g id="OBJECTS"><path d="M12.59,28.34H11.33a28.25,28.25,0,0,0-7.59,10.8c.19.27.38.53.58.79A27.3,27.3,0,0,1,12.59,28.34Zm-4.2,0H7.13A28.27,28.27,0,0,0,1.6,35c.12.32.24.64.38,1A27.61,27.61,0,0,1,8.39,28.34Zm8.39,0H15.52a28.2,28.2,0,0,0-8.7,14.3c.23.2.46.4.7.59A27.35,27.35,0,0,1,16.78,28.34Zm7.14,0a28,28,0,0,0-9.41,18.47l.8.2a27.25,27.25,0,0,1,9.87-18.67Zm-2.94,0H19.72a28,28,0,0,0-9.21,16.87c.25.14.51.27.77.4A27.27,27.27,0,0,1,21,28.34Z"/><path d="M22,31.42l-.54.63A25,25,0,0,1,32,42.89l.63-.57A25.73,25.73,0,0,0,22,31.42Z"/><path d="M20,34l-.45.68a24.92,24.92,0,0,1,9.81,10.08l.7-.43A25.77,25.77,0,0,0,20,34Z"/><path d="M18.28,36.85c-.13.24-.25.48-.37.73a25,25,0,0,1,8.48,8.64l.76-.31A25.74,25.74,0,0,0,18.28,36.85Z"/><path d="M16.92,39.91c-.1.27-.2.53-.29.8a25.11,25.11,0,0,1,6.43,6.45l.86-.18A25.88,25.88,0,0,0,16.92,39.91Z"/><path d="M34.82,28.34h-1.2A25.18,25.18,0,0,1,38,33.52c.1-.36.19-.72.27-1.09A25.82,25.82,0,0,0,34.82,28.34Z"/><path d="M15.9,43.32c-.07.3-.14.6-.19.9a25.73,25.73,0,0,1,3.35,3.25h1.06A25.89,25.89,0,0,0,15.9,43.32Z"/><path d="M24.4,29c-.22.19-.43.39-.64.59A25,25,0,0,1,34.37,40.45c.19-.24.38-.47.56-.72A26,26,0,0,0,24.4,29Z"/><path d="M29.55,28.34H28.11a24.93,24.93,0,0,1,8.31,9c.16-.29.31-.58.45-.88A25.86,25.86,0,0,0,29.55,28.34Z"/><path d="M19.55,47.89A19.57,19.57,0,0,1,0,28.34a.41.41,0,0,1,.41-.41H38.69a.42.42,0,0,1,.41.41A19.57,19.57,0,0,1,19.55,47.89ZM.82,28.75a18.73,18.73,0,0,0,37.45,0Z"/><path d="M19.39,14l.89-.89.89.89a13.77,13.77,0,0,1,2.58,4,5.17,5.17,0,0,0,1.58-3.73V1.1c0-.43-.62-.83-1.2-.83V10.5H22.32V.5a.65.65,0,0,0-1.26,0v10H19.2V.5a.57.57,0,0,0-.63-.5.58.58,0,0,0-.63.5v10h-1.8V.14c-.37,0-1.21.2-1.21.9V14.25a5.16,5.16,0,0,0,1.8,3.92A13.72,13.72,0,0,1,19.39,14Z"/><path class="cls-1" d="M13.17,25.42C5.73,25.67.41,26.36.41,27.16h14A8.53,8.53,0,0,1,13.17,25.42Z"/><path class="cls-1" d="M26.14,27.16H39.05c0-.76-4.81-1.42-11.68-1.7A8.56,8.56,0,0,1,26.14,27.16Z"/><path class="cls-1" d="M24.21,27.16A6.76,6.76,0,0,0,27,22.31a3.68,3.68,0,0,0-3.74-.58v-.09c0-3.74-3-6.78-3-6.78s-3,3-3,6.78v.06a3.69,3.69,0,0,0-3.75.53,6.79,6.79,0,0,0,2.82,4.93Z"/><text class="cls-2" transform="translate(42.5 38.39)">Me<tspan class="cls-3" x="23.86" y="0">r</tspan><tspan x="30.45" y="0">i</tspan><tspan class="cls-4" x="35.13" y="0">’</tspan><tspan class="cls-5" x="39.08" y="0">s</tspan><tspan class="cls-6" x="47.25" y="0"> </tspan><tspan class="cls-7" x="51.61" y="0">Diet</tspan></text></g></g></svg>