<svg xmlns="http://www.w3.org/2000/svg" viewBox="0 0 295.65 423.49"><defs><style>.cls-1,.cls-2{fill:#52c75a;}.cls-2{font-size:41.56px;font-family:Montserrat-ExtraBold, Montserrat;font-weight:800;}.cls-3{letter-spacing:0em;}.cls-4{letter-spacing:0em;}.cls-5{letter-spacing:-0.02em;}.cls-6{fill:#b8e45c;}.cls-7{fill:#000;}</style></defs><g id="katman_2" data-name="katman 2"><g id="OBJECTS"><path d="M95.19,214.33H85.67A213.23,213.23,0,0,0,28.31,296q2.1,3.06,4.34,6A207.14,207.14,0,0,1,95.19,214.33Zm-31.73,0H53.93a214.14,214.14,0,0,0-41.87,50.26C13,267,14,269.47,15,271.86A207.72,207.72,0,0,1,63.46,214.33Zm63.47,0H117.4a212.61,212.61,0,0,0-65.8,108.1q2.58,2.31,5.28,4.48A206.52,206.52,0,0,1,126.93,214.33Zm53.93,0A212.1,212.1,0,0,0,109.73,354c2,.55,4,1.05,6.08,1.52a206,206,0,0,1,74.6-141.18Zm-22.19,0h-9.53A212.22,212.22,0,0,0,79.46,341.92c1.91,1,3.86,2,5.83,3A206.15,206.15,0,0,1,158.67,214.33Z"/><path d="M166.39,237.6c-1.39,1.58-2.77,3.17-4.11,4.8a188.91,188.91,0,0,1,79.62,81.91c1.63-1.39,3.22-2.82,4.79-4.28A195.12,195.12,0,0,0,166.39,237.6Z"/><path d="M151.05,257.31c-1.17,1.7-2.32,3.43-3.44,5.17a189,189,0,0,1,74.21,76.26q2.67-1.59,5.26-3.3A195.15,195.15,0,0,0,151.05,257.31Z"/><path d="M138.24,278.64q-1.44,2.76-2.79,5.55a189,189,0,0,1,64.1,65.35q2.94-1.12,5.8-2.37A195.31,195.31,0,0,0,138.24,278.64Z"/><path d="M127.92,301.84c-.74,2-1.46,4-2.14,6a189.25,189.25,0,0,1,48.59,48.75c2.2-.41,4.38-.86,6.54-1.37A195.37,195.37,0,0,0,127.92,301.84Z"/><path d="M263.3,214.33h-9a189.44,189.44,0,0,1,32.93,39.17c.76-2.71,1.43-5.45,2-8.22A195.56,195.56,0,0,0,263.3,214.33Z"/><path d="M120.21,327.61c-.51,2.24-1,4.49-1.44,6.76A188.78,188.78,0,0,1,144.13,359c1.23,0,2.46,0,3.7,0,1.44,0,2.89,0,4.33-.06A196,196,0,0,0,120.21,327.61Z"/><path d="M184.51,219.4q-2.46,2.17-4.85,4.43a188.9,188.9,0,0,1,80.27,82q2.16-2.64,4.2-5.39A195.17,195.17,0,0,0,184.51,219.4Z"/><path d="M223.48,214.33H212.54a189,189,0,0,1,62.91,68.3c1.18-2.19,2.3-4.43,3.37-6.69A195.4,195.4,0,0,0,223.48,214.33Z"/><path d="M147.83,362.16C66.31,362.16,0,295.85,0,214.33a3.09,3.09,0,0,1,3.1-3.09H292.56a3.09,3.09,0,0,1,3.09,3.09C295.65,295.85,229.34,362.16,147.83,362.16ZM6.23,217.43C7.88,294.1,70.76,356,147.83,356s139.94-61.87,141.6-138.54Z"/><path d="M146.65,105.75,153.36,99l6.7,6.78A102.72,102.72,0,0,1,179.63,136a39.18,39.18,0,0,0,11.93-28.17V8.35c0-3.31-4.68-6.28-9.11-6.28V79.4H168.79V3.8c0-2.1-2.13-3.8-4.75-3.8s-4.76,1.7-4.76,3.8V79.4H145.2V3.8c0-2.1-2.13-3.8-4.75-3.8s-4.75,1.7-4.75,3.8V79.4H122V1.06c-2.78,0-9.11,1.52-9.11,6.83v99.89a39.23,39.23,0,0,0,13.57,29.66A102.67,102.67,0,0,1,146.65,105.75Z"/><path class="cls-1" d="M99.62,192.2C43.34,194.14,3.1,199.31,3.1,205.38h106A60.9,60.9,0,0,1,99.62,192.2Z"/><path class="cls-1" d="M197.64,205.38h97.67c0-5.77-36.4-10.73-88.36-12.87A60.81,60.81,0,0,1,197.64,205.38Z"/><path class="cls-1" d="M183.06,205.38a51.19,51.19,0,0,0,21.29-36.69c-7.63-6.1-17.22-8.36-28.32-4.39,0-.22,0-.44,0-.67,0-28.3-22.68-51.25-22.68-51.25s-22.69,23-22.69,51.25c0,.16,0,.31,0,.47-11.18-4.17-20.75-2-28.34,4a51.2,51.2,0,0,0,21.31,37.23Z"/><text class="cls-2" transform="translate(29.79 412.35)">Me<tspan class="cls-3" x="66.33" y="0">r</tspan><tspan class="cls-4" x="84.66" y="0">i</tspan><tspan class="cls-5" x="97.67" y="0">’</tspan><tspan class="cls-4" x="108.64" y="0">s</tspan><tspan class="cls-6" x="131.38" y="0"> </tspan><tspan class="cls-7" x="143.47" y="0">Diet</tspan></text></g></g></svg>