<svg xmlns="http://www.w3.org/2000/svg" viewBox="0 0 181.71 47.89"><defs><style>.cls-1{fill:#52c75a;}</style></defs><g id="katman_2" data-name="katman 2"><g id="OBJECTS"><path d="M12.59,28.34H11.33a28.25,28.25,0,0,0-7.59,10.8c.19.27.38.53.58.79A27.3,27.3,0,0,1,12.59,28.34Zm-4.2,0H7.13A28.27,28.27,0,0,0,1.6,35c.12.32.24.64.38,1A27.61,27.61,0,0,1,8.39,28.34Zm8.39,0H15.52a28.2,28.2,0,0,0-8.7,14.3c.23.2.46.4.7.59A27.35,27.35,0,0,1,16.78,28.34Zm7.14,0a28,28,0,0,0-9.41,18.47l.8.2a27.25,27.25,0,0,1,9.87-18.67Zm-2.94,0H19.72a28,28,0,0,0-9.21,16.87c.25.14.51.27.77.4A27.27,27.27,0,0,1,21,28.34Z"/><path d="M22,31.42l-.54.63A25,25,0,0,1,32,42.89l.63-.57A25.73,25.73,0,0,0,22,31.42Z"/><path d="M20,34l-.45.68a24.92,24.92,0,0,1,9.81,10.08l.7-.43A25.77,25.77,0,0,0,20,34Z"/><path d="M18.28,36.85c-.13.24-.25.48-.37.73a25,25,0,0,1,8.48,8.64l.76-.31A25.74,25.74,0,0,0,18.28,36.85Z"/><path d="M16.92,39.91c-.1.27-.2.53-.29.8a25.11,25.11,0,0,1,6.43,6.45l.86-.18A25.88,25.88,0,0,0,16.92,39.91Z"/><path d="M34.82,28.34h-1.2A25.18,25.18,0,0,1,38,33.52c.1-.36.19-.72.27-1.09A25.82,25.82,0,0,0,34.82,28.34Z"/><path d="M15.9,43.32c-.07.3-.14.6-.19.9a25.73,25.73,0,0,1,3.35,3.25h1.06A25.89,25.89,0,0,0,15.9,43.32Z"/><path d="M24.4,29c-.22.19-.43.39-.64.59A25,25,0,0,1,34.37,40.45c.19-.24.38-.47.56-.72A26,26,0,0,0,24.4,29Z"/><path d="M29.55,28.34H28.11a24.93,24.93,0,0,1,8.31,9c.16-.29.31-.58.45-.88A25.86,25.86,0,0,0,29.55,28.34Z"/><path d="M19.55,47.89A19.57,19.57,0,0,1,0,28.34a.41.41,0,0,1,.41-.41H38.69a.42.42,0,0,1,.41.41A19.57,19.57,0,0,1,19.55,47.89ZM.82,28.75a18.73,18.73,0,0,0,37.45,0Z"/><path d="M19.39,14l.89-.89.89.89a13.77,13.77,0,0,1,2.58,4,5.17,5.17,0,0,0,1.58-3.73V1.1c0-.43-.62-.83-1.2-.83V10.5H22.32V.5a.65.65,0,0,0-1.26,0v10H19.2V.5a.57.57,0,0,0-.63-.5.58.58,0,0,0-.63.5v10h-1.8V.14c-.37,0-1.21.2-1.21.9V14.25a5.16,5.16,0,0,0,1.8,3.92A13.72,13.72,0,0,1,19.39,14Z"/><path class="cls-1" d="M13.17,25.42C5.73,25.67.41,26.36.41,27.16h14A8.53,8.53,0,0,1,13.17,25.42Z"/><path class="cls-1" d="M26.14,27.16H39.05c0-.76-4.81-1.42-11.68-1.7A8.56,8.56,0,0,1,26.14,27.16Z"/><path class="cls-1" d="M24.21,27.16A6.76,6.76,0,0,0,27,22.31a3.68,3.68,0,0,0-3.74-.58v-.09c0-3.74-3-6.78-3-6.78s-3,3-3,6.78v.06a3.69,3.69,0,0,0-3.75.53,6.79,6.79,0,0,0,2.82,4.93Z"/><path class="cls-1" d="M59.81,45.67l-.05-9.11L55.34,44H53.18l-4.4-7.17v8.86H44.29V28.49h4l6,9.91,5.89-9.91h4l0,17.18Z"/><path class="cls-1" d="M81,40.2H71.34a2.73,2.73,0,0,0,1.15,1.58,3.78,3.78,0,0,0,2.12.55,4.62,4.62,0,0,0,1.66-.27,5,5,0,0,0,1.41-.88l2.45,2.55a7.22,7.22,0,0,1-5.67,2.16,9.06,9.06,0,0,1-4.1-.88,6.62,6.62,0,0,1-2.74-2.46,7.07,7.07,0,0,1,0-7.08A6.6,6.6,0,0,1,70.21,33,7.94,7.94,0,0,1,74,32.14a7.83,7.83,0,0,1,3.61.83,6.18,6.18,0,0,1,2.56,2.38,7,7,0,0,1,1,3.69S81.06,39.46,81,40.2Zm-8.83-4.13a2.79,2.79,0,0,0-.92,1.67h5.45a2.79,2.79,0,0,0-.92-1.67,3,3,0,0,0-3.61,0Z"/><path class="cls-1" d="M89.55,32.6a7.07,7.07,0,0,1,2.61-.46v4.2a9.3,9.3,0,0,0-1.06-.07,3.25,3.25,0,0,0-2.34.81,3.29,3.29,0,0,0-.85,2.48v6.11H83.25V32.36h4.44V34A4.28,4.28,0,0,1,89.55,32.6Z"/><path class="cls-1" d="M94.34,30.18a2.39,2.39,0,0,1,0-3.53,3,3,0,0,1,2.07-.72,3.06,3.06,0,0,1,2.06.68,2.19,2.19,0,0,1,.78,1.73,2.38,2.38,0,0,1-.78,1.83,3.34,3.34,0,0,1-4.13,0Zm-.27,2.18h4.67V45.67H94.07Z"/><path class="cls-1" d="M105.73,28a2.61,2.61,0,0,1,.79,2,4.33,4.33,0,0,1-.15,1.13,13.09,13.09,0,0,1-.64,1.7l-1.57,3.58h-2.92l1.16-4a2.36,2.36,0,0,1-1.07-.95A2.67,2.67,0,0,1,101,30a2.64,2.64,0,0,1,.78-2,2.79,2.79,0,0,1,2-.77A2.71,2.71,0,0,1,105.73,28Z"/><path class="cls-1" d="M109.78,45.51a8.89,8.89,0,0,1-2.6-1l1.4-3.2a7.88,7.88,0,0,0,2.16.9,9.72,9.72,0,0,0,2.48.33,4.11,4.11,0,0,0,1.61-.23.74.74,0,0,0,.48-.68c0-.29-.2-.5-.58-.62a11.4,11.4,0,0,0-1.83-.36,18.3,18.3,0,0,1-2.71-.51A4.26,4.26,0,0,1,108.26,39a3.38,3.38,0,0,1-.81-2.41,3.67,3.67,0,0,1,.76-2.27,5.12,5.12,0,0,1,2.23-1.57,9.55,9.55,0,0,1,3.49-.58,13.78,13.78,0,0,1,2.87.3,8.14,8.14,0,0,1,2.39.83l-1.4,3.17a7.82,7.82,0,0,0-3.83-1,3.67,3.67,0,0,0-1.62.26c-.35.17-.52.39-.52.67s.19.53.57.65a12.82,12.82,0,0,0,1.86.38A20.31,20.31,0,0,1,117,38a4.13,4.13,0,0,1,1.87,1.16,3.3,3.3,0,0,1,.8,2.37,3.6,3.6,0,0,1-.76,2.25,5,5,0,0,1-2.24,1.56,10.31,10.31,0,0,1-3.58.56A14.57,14.57,0,0,1,109.78,45.51Z"/><path d="M129,28.49h8.12a11.42,11.42,0,0,1,5,1.05,7.93,7.93,0,0,1,3.39,3,8.43,8.43,0,0,1,1.2,4.54,8.45,8.45,0,0,1-1.2,4.54,7.91,7.91,0,0,1-3.39,3,11.28,11.28,0,0,1-5,1.06H129ZM137,41.79a5,5,0,0,0,3.54-1.25,4.49,4.49,0,0,0,1.34-3.46,4.46,4.46,0,0,0-1.34-3.46A5,5,0,0,0,137,32.36h-3.07v9.43Z"/><path d="M149.35,30.18a2.39,2.39,0,0,1,0-3.53,3,3,0,0,1,2.07-.72,3.06,3.06,0,0,1,2.06.68,2.19,2.19,0,0,1,.78,1.73,2.38,2.38,0,0,1-.78,1.83,3.34,3.34,0,0,1-4.13,0Zm-.27,2.18h4.67V45.67h-4.67Z"/><path d="M170.29,40.2h-9.67a2.76,2.76,0,0,0,1.14,1.58,3.81,3.81,0,0,0,2.13.55,4.56,4.56,0,0,0,1.65-.27,4.74,4.74,0,0,0,1.41-.88l2.46,2.55a7.22,7.22,0,0,1-5.67,2.16,9,9,0,0,1-4.1-.88,6.72,6.72,0,0,1-.15-12,8.33,8.33,0,0,1,7.37-.06,6.18,6.18,0,0,1,2.56,2.38,7,7,0,0,1,1,3.69S170.34,39.46,170.29,40.2Zm-8.82-4.13a2.74,2.74,0,0,0-.92,1.67H166a2.79,2.79,0,0,0-.92-1.67,2.72,2.72,0,0,0-1.81-.61A2.67,2.67,0,0,0,161.47,36.07Z"/><path d="M181.71,45.13a4.86,4.86,0,0,1-1.44.56,8,8,0,0,1-1.8.2,5.76,5.76,0,0,1-4-1.28,4.9,4.9,0,0,1-1.39-3.8V36.34h-1.94V32.86h1.94V29.39h4.66v3.47h3v3.48h-3v4.42a1.6,1.6,0,0,0,.38,1.12,1.32,1.32,0,0,0,1,.4,2.45,2.45,0,0,0,1.42-.42Z"/></g></g></svg>